<svg width="21" height="23" viewBox="0 0 21 23" fill="none" xmlns="http://www.w3.org/2000/svg">
<path fill-rule="evenodd" clip-rule="evenodd" d="M2.1341 8.35006H4.14505C4.14534 8.73967 4.34903 9.11467 4.70115 9.30077C5.19788 9.56331 5.80191 9.35048 6.05028 8.82541L6.27514 8.35006H14.0824L14.3073 8.82541C14.5557 9.35048 15.1597 9.56331 15.6564 9.30077C16.0086 9.11467 16.2122 8.73967 16.2125 8.35006H18.2235V10.4801H2.1341V8.35006ZM15.3254 6.22418H18.2235C19.3342 6.22418 20.2347 7.17597 20.2347 8.35006V10.4759C20.2347 11.3688 19.7139 12.1331 18.9759 12.448C18.9793 12.4988 18.9811 12.5501 18.9811 12.6018C18.9811 12.7569 18.965 12.9115 18.9332 13.063L17.3689 20.5035C17.1645 21.4762 16.3483 22.1682 15.4057 22.1682H4.95192C4.00929 22.1682 3.19313 21.4762 2.98864 20.5035L1.4244 13.063C1.38086 12.8559 1.36751 12.6491 1.38126 12.4478C0.643489 12.1328 0.122925 11.3686 0.122925 10.4759V8.35006C0.122925 7.17597 1.02336 6.22418 2.1341 6.22418H5.03216L7.26819 1.49708C7.51656 0.972013 8.12059 0.759187 8.61733 1.02172C9.11407 1.28425 9.31541 1.92273 9.06704 2.4478L7.28072 6.22418H13.0769L11.2905 2.4478C11.0422 1.92273 11.2435 1.28425 11.7403 1.02172C12.237 0.759187 12.841 0.972013 13.0894 1.49708L15.3254 6.22418ZM16.9699 12.6018L3.38768 12.6018L4.95192 20.0423H15.4057L16.9699 12.6018Z" fill="#6FA701"/>
</svg>
